<svg xmlns="http://www.w3.org/2000/svg" xmlns:xlink="http://www.w3.org/1999/xlink" width="168" height="100" viewBox="0 0 168 100">
  <defs>
    <clipPath id="clip-path">
      <rect width="168" height="100" fill="none"/>
    </clipPath>
  </defs>
  <g id="Repeat_Grid_2" data-name="Repeat Grid 2" clip-path="url(#clip-path)">
    <g transform="translate(-215 -928)">
      <circle id="Ellipse_2" data-name="Ellipse 2" cx="4.5" cy="4.5" r="4.5" transform="translate(215 928)" fill="#fff"/>
    </g>
    <g transform="translate(-177 -928)">
      <circle id="Ellipse_2-2" data-name="Ellipse 2" cx="4.5" cy="4.5" r="4.5" transform="translate(215 928)" fill="#fff"/>
    </g>
    <g transform="translate(-139 -928)">
      <circle id="Ellipse_2-3" data-name="Ellipse 2" cx="4.5" cy="4.5" r="4.5" transform="translate(215 928)" fill="#fff"/>
    </g>
    <g transform="translate(-101 -928)">
      <circle id="Ellipse_2-4" data-name="Ellipse 2" cx="4.5" cy="4.5" r="4.5" transform="translate(215 928)" fill="#fff"/>
    </g>
    <g transform="translate(-63 -928)">
      <circle id="Ellipse_2-5" data-name="Ellipse 2" cx="4.5" cy="4.5" r="4.5" transform="translate(215 928)" fill="#fff"/>
    </g>
    <g transform="translate(-215 -899)">
      <circle id="Ellipse_2-6" data-name="Ellipse 2" cx="4.5" cy="4.5" r="4.5" transform="translate(215 928)" fill="#fff"/>
    </g>
    <g transform="translate(-177 -899)">
      <circle id="Ellipse_2-7" data-name="Ellipse 2" cx="4.5" cy="4.5" r="4.5" transform="translate(215 928)" fill="#fff"/>
    </g>
    <g transform="translate(-139 -899)">
      <circle id="Ellipse_2-8" data-name="Ellipse 2" cx="4.5" cy="4.5" r="4.5" transform="translate(215 928)" fill="#fff"/>
    </g>
    <g transform="translate(-101 -899)">
      <circle id="Ellipse_2-9" data-name="Ellipse 2" cx="4.5" cy="4.5" r="4.5" transform="translate(215 928)" fill="#fff"/>
    </g>
    <g transform="translate(-63 -899)">
      <circle id="Ellipse_2-10" data-name="Ellipse 2" cx="4.5" cy="4.5" r="4.5" transform="translate(215 928)" fill="#fff"/>
    </g>
    <g transform="translate(-215 -870)">
      <circle id="Ellipse_2-11" data-name="Ellipse 2" cx="4.5" cy="4.5" r="4.5" transform="translate(215 928)" fill="#fff"/>
    </g>
    <g transform="translate(-177 -870)">
      <circle id="Ellipse_2-12" data-name="Ellipse 2" cx="4.5" cy="4.5" r="4.5" transform="translate(215 928)" fill="#fff"/>
    </g>
    <g transform="translate(-139 -870)">
      <circle id="Ellipse_2-13" data-name="Ellipse 2" cx="4.5" cy="4.5" r="4.5" transform="translate(215 928)" fill="#fff"/>
    </g>
    <g transform="translate(-101 -870)">
      <circle id="Ellipse_2-14" data-name="Ellipse 2" cx="4.5" cy="4.5" r="4.5" transform="translate(215 928)" fill="#fff"/>
    </g>
    <g transform="translate(-63 -870)">
      <circle id="Ellipse_2-15" data-name="Ellipse 2" cx="4.5" cy="4.5" r="4.5" transform="translate(215 928)" fill="#fff"/>
    </g>
    <g transform="translate(-215 -841)">
      <circle id="Ellipse_2-16" data-name="Ellipse 2" cx="4.5" cy="4.5" r="4.5" transform="translate(215 928)" fill="#fff"/>
    </g>
    <g transform="translate(-177 -841)">
      <circle id="Ellipse_2-17" data-name="Ellipse 2" cx="4.5" cy="4.5" r="4.5" transform="translate(215 928)" fill="#fff"/>
    </g>
    <g transform="translate(-139 -841)">
      <circle id="Ellipse_2-18" data-name="Ellipse 2" cx="4.5" cy="4.5" r="4.5" transform="translate(215 928)" fill="#fff"/>
    </g>
    <g transform="translate(-101 -841)">
      <circle id="Ellipse_2-19" data-name="Ellipse 2" cx="4.5" cy="4.5" r="4.5" transform="translate(215 928)" fill="#fff"/>
    </g>
    <g transform="translate(-63 -841)">
      <circle id="Ellipse_2-20" data-name="Ellipse 2" cx="4.5" cy="4.5" r="4.5" transform="translate(215 928)" fill="#fff"/>
    </g>
  </g>
</svg>
